<svg width="215" height="80" viewBox="0 0 215 80" fill="none" xmlns="http://www.w3.org/2000/svg">
<mask id="mask0_2492_1470" style="mask-type:alpha" maskUnits="userSpaceOnUse" x="0" y="-104" width="215" height="321">
<rect y="-104" width="215" height="321" fill="url(#paint0_radial_2492_1470)"/>
</mask>
<g mask="url(#mask0_2492_1470)">
<path d="M108.074 135.619C94.7587 155.785 94.0648 187.902 95.3822 201.44C74.0003 168.5 55.5 123 90.2824 91.2972C146.019 49.3714 142.5 59.0947 169.418 35.8636C196.336 12.6325 198.998 -0.712982 209.05 -47.4603C209.959 -51.6908 210.497 -23.3393 205.915 1.14365C201.333 25.6266 182.116 49.9789 173.081 59.0947C156.96 76.2007 121.388 115.454 108.074 135.619Z" fill="url(#paint1_linear_2492_1470)"/>
<path d="M93.6398 -13.3878C150.392 -28.1796 174.862 -85.2925 180.002 -112C192.34 -41.1225 149 12.3803 81.3023 72.8979C22.6991 125.286 75.1335 190 75.1335 190C-8.76163 130.833 36 53.5955 81.3023 20.5102C126.605 -12.5751 51 26 35.0366 39C14.1457 56.0127 4.19277 82.1429 4.19277 82.1429C4.19277 82.1429 1.10839 66.7347 19.6147 35.9184C33.2803 15.2046 59.8651 -4.58482 93.6398 -13.3878Z" fill="url(#paint2_linear_2492_1470)"/>
</g>
<defs>
<radialGradient id="paint0_radial_2492_1470" cx="0" cy="0" r="1" gradientUnits="userSpaceOnUse" gradientTransform="translate(107.5 56.5) rotate(90) scale(160.5 138.55)">
<stop stop-color="#D9D9D9"/>
<stop offset="1" stop-color="#737373" stop-opacity="0"/>
</radialGradient>
<linearGradient id="paint1_linear_2492_1470" x1="171.168" y1="-58.082" x2="101.211" y2="203.002" gradientUnits="userSpaceOnUse">
<stop stop-color="#E2B085"/>
<stop offset="1" stop-color="#DCBA9D"/>
</linearGradient>
<linearGradient id="paint2_linear_2492_1470" x1="93.0488" y1="-112" x2="93.0488" y2="190" gradientUnits="userSpaceOnUse">
<stop stop-color="#E2B085"/>
<stop offset="1" stop-color="#DCBA9D"/>
</linearGradient>
</defs>
</svg>
