<svg width="54" height="54" viewBox="0 0 54 54" fill="none" xmlns="http://www.w3.org/2000/svg">
<path d="M31.0774 33.7903L30.8098 42.9964C30.8013 43.2672 30.7101 43.5288 30.5486 43.7462C30.387 43.9637 30.1628 44.1264 29.906 44.2127C29.6492 44.2989 29.3722 44.3045 29.1121 44.2287C28.852 44.1529 28.6214 43.9993 28.4512 43.7886L22.6808 36.6103C22.559 36.4588 22.4058 36.3355 22.2317 36.249C22.0576 36.1625 21.8669 36.1147 21.6725 36.1091L12.4664 35.8415C12.1957 35.833 11.934 35.7419 11.7166 35.5803C11.4992 35.4187 11.3364 35.1945 11.2501 34.9377C11.1639 34.6809 11.1583 34.4039 11.2341 34.1438C11.3099 33.8838 11.4635 33.6531 11.6742 33.4829L18.8525 27.7125C19.004 27.5907 19.1273 27.4375 19.2138 27.2634C19.3003 27.0894 19.3481 26.8986 19.3537 26.7043L19.6213 17.4981C19.6298 17.2274 19.721 16.9657 19.8825 16.7483C20.0441 16.5309 20.2683 16.3681 20.5251 16.2819C20.7819 16.1956 21.0589 16.19 21.319 16.2658C21.579 16.3417 21.8097 16.4952 21.9799 16.706L27.7503 23.8842C27.8721 24.0357 28.0253 24.159 28.1994 24.2455C28.3735 24.3321 28.5642 24.3798 28.7585 24.3854L37.9647 24.653C38.2354 24.6615 38.4971 24.7527 38.7145 24.9142C38.9319 25.0758 39.0947 25.3001 39.1809 25.5568C39.2672 25.8136 39.2728 26.0907 39.197 26.3507C39.1211 26.6108 38.9676 26.8414 38.7568 27.0116L31.5786 32.782C31.4271 32.9038 31.3038 33.057 31.2173 33.2311C31.1307 33.4052 31.083 33.596 31.0774 33.7903Z" fill="#FFD04A"/>
<path d="M28.5191 6.74072L31.054 14.2882" stroke="#FFD04A" stroke-width="0.849302" stroke-linecap="round" stroke-linejoin="round"/>
<path d="M33.5603 9.24702L26.0128 11.7819" stroke="#FFD04A" stroke-width="0.849302" stroke-linecap="round" stroke-linejoin="round"/>
<path d="M39.024 13.0112L40.7139 18.0429" stroke="#FFD04A" stroke-width="0.849302" stroke-linecap="round" stroke-linejoin="round"/>
<path d="M42.3848 14.6821L37.3531 16.372" stroke="#FFD04A" stroke-width="0.849302" stroke-linecap="round" stroke-linejoin="round"/>
</svg>
