<svg width="48" height="48" viewBox="0 0 48 48" fill="none" xmlns="http://www.w3.org/2000/svg">
<path fill-rule="evenodd" clip-rule="evenodd" d="M45.016 0.157122C44.4452 0.405733 34.7057 8.36401 27.9162 14.1295L25.6557 16.0491L18.4859 8.8941C10.79 1.21402 11.0436 1.43932 9.84648 1.21665C9.45755 1.14436 9.14859 1.14436 8.75966 1.21665C7.61433 1.42967 7.54383 1.48689 3.66207 5.35389C-0.329794 9.33045 -0.282419 9.26818 0.263892 9.81447C0.741388 10.2921 0.802994 10.2496 3.42454 7.63493L5.8402 5.22551L6.3293 5.71468L6.81841 6.20385L4.4093 8.61983C1.79497 11.2417 1.75246 11.3033 2.23005 11.7809C2.75108 12.3021 2.82804 12.2507 5.46316 9.62242L7.85776 7.23397L8.32083 7.70423L8.78391 8.17439L6.47321 10.4905C3.87301 13.0969 3.75897 13.2657 4.22917 13.8133C4.65217 14.306 4.86049 14.1613 7.42942 11.5905L9.81437 9.20385L10.3082 9.69152L10.8019 10.1793L8.41409 12.574C5.78627 15.2093 5.73487 15.2863 6.25599 15.8074C6.73349 16.285 6.7951 16.2425 9.41664 13.6278L11.8323 11.2184L12.3214 11.7076L12.8105 12.1967L10.4014 14.6127C7.78707 17.2346 7.74456 17.2962 8.22215 17.7738C8.74318 18.295 8.82014 18.2436 11.4553 15.6153L13.8499 13.2269L14.312 13.6962L14.7742 14.1655L12.4657 16.4826C9.86417 19.0937 9.75201 19.2597 10.2213 19.8062C10.6443 20.2988 10.8526 20.1542 13.4215 17.5834L15.8065 15.1967L16.3003 15.6844L16.794 16.1722L14.4062 18.5669C11.7784 21.2022 11.727 21.2791 12.2481 21.8002C12.7256 22.2779 12.7872 22.2354 15.4087 19.6207L17.8244 17.2113L18.3135 17.7005L18.8026 18.1896L16.3935 20.6056C13.7792 23.2275 13.7367 23.2891 14.2143 23.7667C14.7353 24.2879 14.8122 24.2364 17.4472 21.6083L19.8416 19.2201L20.3346 19.7193L20.8276 20.2186L19.3955 21.4726C17.3511 23.2629 13.1833 26.9749 12.6034 27.522C11.9981 28.0931 11.9843 28.2719 12.4875 29.0214C13.4807 30.5007 13.5841 32.3753 12.758 33.9254C12.3363 34.7169 9.27695 37.7149 8.52354 38.0752C5.24923 39.6409 1.52223 37.338 1.4992 33.735C1.4713 29.3731 6.57301 27.2191 9.77551 30.2407C10.5193 30.9423 10.8174 31.0255 11.2232 30.6442C11.5996 30.2905 11.5348 29.968 10.9649 29.3607C7.07157 25.2114 0.0447123 27.999 0.0354433 33.6966C0.0288894 37.7027 3.86561 40.79 7.72237 39.8821L8.24818 39.7583L8.12141 40.2346C7.26903 43.4359 9.57346 47.0887 12.9142 47.8321C18.6301 49.1039 22.8782 42.4962 19.3417 37.8341L18.8641 37.2044L21.2461 34.5274C23.1755 32.3589 27.5867 27.3564 27.7199 27.1858C27.7376 27.163 27.983 27.3724 28.2652 27.6512L28.7782 28.1579L26.3904 30.5527C23.7626 33.188 23.7112 33.2649 24.2323 33.786C24.7098 34.2637 24.7714 34.2212 27.3929 31.6065L29.8086 29.1971L30.2977 29.6862L30.7868 30.1754L28.3777 32.5914C25.7634 35.2133 25.7209 35.2749 26.1985 35.7524C26.7195 36.2736 26.7964 36.2222 29.4314 33.5941L31.8258 31.2059L32.3135 31.6997L32.8011 32.1936L30.4147 34.5789C27.8443 37.1481 27.6997 37.3565 28.1922 37.7795C28.7386 38.2488 28.9046 38.1367 31.5154 35.5348L33.8322 33.226L34.3015 33.6883L34.7707 34.1505L32.3826 36.5454C29.7547 39.1808 29.7033 39.2578 30.2244 39.7789C30.7019 40.2566 30.7635 40.214 33.385 37.5994L35.8007 35.1899L36.2898 35.6791L36.7789 36.1683L34.3698 38.5843C31.7555 41.2061 31.713 41.2678 32.1906 41.7453C32.7116 42.2665 32.7885 42.2151 35.4235 39.5869L37.8179 37.1988L38.3056 37.6926L38.7932 38.1865L36.4068 40.5717C33.8364 43.141 33.6918 43.3494 34.1843 43.7724C34.7307 44.2417 34.8967 44.1296 37.5075 41.5277L39.8243 39.2188L40.2936 39.6811L40.7628 40.1433L38.3747 42.5383C35.7468 45.1737 35.6954 45.2507 36.2165 45.7718C36.694 46.2494 36.7556 46.2069 39.3771 43.5923L41.7928 41.1828L42.2819 41.672L42.771 42.1612L40.3619 44.5771C37.7476 47.199 37.7051 47.2607 38.1827 47.7382C38.7242 48.2799 38.6718 48.3194 42.5657 44.4332C46.9319 40.0756 47.1817 39.68 46.7159 37.8613C46.4681 36.8944 46.4766 36.9035 39.0481 29.4591L31.9317 22.3272L33.4727 20.5165C39.3368 13.6264 47.4448 3.733 47.8025 3.03118C48.6286 1.41057 46.7015 -0.577007 45.016 0.157122ZM31.4138 15.5977C23.8801 23.1327 17.6776 29.3586 17.6306 29.4328C17.4092 29.783 17.8543 30.4576 18.3067 30.4576C18.4702 30.4576 21.927 27.0583 32.3278 16.6693C39.9201 9.08568 45.9853 3.0706 45.8061 3.30236C41.2859 9.14804 28.8671 23.8271 21.0699 32.5407L19.5829 34.2023L19.3225 34.0169C18.7227 33.5897 18.1976 32.6885 18.1976 32.0861C18.1976 31.9079 17.7325 31.5813 17.4785 31.5813C16.3429 31.5813 16.7576 33.7013 18.1277 34.8999L18.6041 35.3167L17.9948 36.0007C16.8901 37.2407 16.881 37.3034 17.6839 38.136C19.368 39.8828 19.6558 42.3452 18.4015 44.2761C15.753 48.3534 9.4392 46.4982 9.45521 41.6475C9.46111 39.8672 9.81811 39.2287 12.1429 36.8403C13.5133 35.4325 13.8044 35.0819 14.0989 34.4841C14.9744 32.7074 14.9988 30.6919 14.165 29.0397C14.0142 28.741 13.8908 28.4546 13.8908 28.4032C13.8908 28.102 25.929 17.6501 34.4418 10.5603C39.5619 6.29618 44.9559 1.89777 45.0652 1.89777C45.0908 1.89777 38.9477 8.06277 31.4138 15.5977ZM10.1253 2.79062C10.3693 2.89128 12.5772 5.0373 17.5075 9.96579L24.5415 16.9973L23.4528 17.9383C22.8539 18.4557 22.2675 18.965 22.1498 19.0697L21.9355 19.2603L14.4033 11.7274L6.87103 4.19464L7.45329 3.60715C8.37841 2.67357 9.21937 2.41663 10.1253 2.79062ZM45.1694 37.8083C45.5951 38.7156 45.3428 39.603 44.3911 40.5461L43.8018 41.1302L36.2769 33.6039C29.2658 26.5916 28.7609 26.0652 28.8818 25.8954C28.9531 25.7952 29.4539 25.2006 29.9945 24.5741L30.9775 23.4351L37.9857 30.4344C42.7652 35.2079 45.0497 37.5528 45.1694 37.8083ZM5.32628 30.3272C2.78825 31.1357 1.99823 34.3037 3.86823 36.1741C5.23649 37.5424 7.47117 37.5424 8.83943 36.1741C11.3938 33.6193 8.75882 29.2339 5.32628 30.3272ZM7.35489 31.8745C8.52663 32.4618 8.76893 34.3098 7.79072 35.1988C6.29279 36.5603 3.90082 35.2438 4.33627 33.2976C4.64964 31.897 6.06677 31.2289 7.35489 31.8745ZM13.2622 38.2664C10.1936 39.2674 9.92587 43.4946 12.8445 44.863C14.0875 45.4457 15.8014 45.1297 16.7968 44.1342C19.3296 41.601 16.6544 37.16 13.2622 38.2664ZM15.2802 39.8379C16.6029 40.475 16.7284 42.5257 15.4943 43.3338C13.4035 44.7027 11.1224 42.0569 12.8016 40.2106C13.3974 39.5556 14.3854 39.407 15.2802 39.8379Z" fill="#FFD04A"/>
</svg>
