<svg width="48" height="48" viewBox="0 0 48 48" fill="none" xmlns="http://www.w3.org/2000/svg">
<path fill-rule="evenodd" clip-rule="evenodd" d="M31.768 0.0964907C29.7271 0.69666 29.2015 2.93659 30.5645 5.22563C31.3535 6.55073 33.2308 6.93259 34.5945 6.04541C34.8682 5.86732 35.1044 5.73347 35.1194 5.74791C35.3911 6.01055 35.7035 7.32618 35.5302 7.47765C35.2735 7.70186 34.9041 8.41403 34.8201 8.84642C34.7617 9.14796 34.6551 9.25453 33.9639 9.7022C33.1469 10.2313 32.214 11.0393 31.7008 11.6621L31.4054 12.0204L28.945 10.6871C21.7293 6.77746 17.8025 5.44543 13.4923 5.44543C9.86247 5.44543 7.76066 6.2475 8.83454 7.22288C9.09778 7.4619 9.2181 7.45928 10.4867 7.18623C14.3205 6.3611 18.8814 7.25775 24.2544 9.89295C25.7731 10.6377 30.3283 13.053 30.5326 13.2217C30.5727 13.2548 30.4743 13.6295 30.3139 14.0543C29.3543 16.5961 29.6822 20.1208 31.1598 23.1479C31.4541 23.7509 32.004 24.0582 32.5966 23.9508C33.278 23.8271 33.3786 23.6376 34.8661 19.6781C35.6281 17.6499 36.2694 15.9715 36.2914 15.9485C36.3133 15.9255 36.6933 16.0206 37.1357 16.1599C40.378 17.1807 43.7243 17.115 45.807 15.9897C46.449 15.6428 46.4576 15.6672 46.4562 17.8462C46.4542 21.3779 45.4296 24.4868 43.4264 27.0397C41.998 28.8601 41.9709 28.9218 42.3027 29.5979C42.4924 29.9841 42.7859 30.1873 43.357 30.3275L43.7765 30.4304L42.8302 31.4588C36.7098 38.1105 29.716 40.0791 24.4557 36.6308C21.3109 34.5693 20.3894 31.7658 21.2605 26.9102C21.6546 24.714 21.7775 22.0599 21.5221 21.2618C21.1205 20.0069 23.1462 23.29 23.7232 24.8293C24.0425 25.6808 24.4792 25.9064 25.017 25.4974C26.1623 24.6265 22.4553 18.9264 19.5048 17.0213C19.1855 16.8152 18.6437 16.426 18.3009 16.1564C16.924 15.0743 15.2858 14.5245 13.3759 14.5036L12.1929 14.4906L12.7941 14.189C15.4918 12.8357 18.5496 13.0396 21.5547 14.7732C22.7703 15.4745 23.3721 15.4118 23.3721 14.5838C23.3721 14.1732 23.2339 14.0445 22.0868 13.3862C16.7043 10.2974 10.2051 12.0815 7.64935 17.3495C6.7337 19.2367 6.62501 19.4738 6.44613 19.974C6.28615 20.4215 6.0391 21.3113 5.84325 22.1457C5.79216 22.3635 5.68919 22.4232 5.04463 22.6081C4.31212 22.8184 3.46366 23.2813 2.94843 23.752L2.6818 23.9954L2.52425 23.7008C1.3696 21.5421 1.21379 17.6028 2.16183 14.5375C2.83645 12.3564 4.30262 10.2495 5.92974 9.12312C7.01293 8.37317 7.21353 7.96909 6.72342 7.52386C6.24504 7.0895 5.46406 7.46302 3.98926 8.8318C-0.0369422 12.5686 -1.21864 19.7907 1.38153 24.7693C1.72475 25.4265 1.74133 25.5015 1.75074 26.4415C1.76285 27.6518 1.99681 28.2165 2.84043 29.0715C3.6534 29.8955 4.58922 30.3231 6.22284 30.6171C6.34917 30.6398 6.51642 30.8455 6.69259 31.1949C7.35344 32.5053 8.84947 34.3071 9.9508 35.119L10.4417 35.481L10.4157 37.5813L10.3897 39.6816L8.98386 40.0777C3.81144 41.5354 1.93631 43.091 1.75054 46.0785C1.68965 47.0576 1.82675 47.4293 2.38095 47.7872L2.71041 48H15.189H27.6677L27.9971 47.7872C29.2044 47.0075 28.6526 44.0164 27.0505 42.6565C26.065 41.82 25.2279 42.8365 26.1108 43.7974C26.7161 44.4563 27.0342 45.154 27.0932 45.9525L27.1407 46.594H15.189H3.23736L3.28604 45.937C3.4433 43.8118 4.96299 42.7345 9.69736 41.392C11.8788 40.7735 11.8925 40.7537 11.8925 38.2465C11.8925 36.8443 11.9191 36.4624 12.0137 36.5036C14.6709 37.6616 15.6951 37.6615 18.3644 36.5034C18.459 36.4624 18.4856 36.8444 18.4856 38.2465C18.4856 40.7532 18.4992 40.7728 20.6807 41.3933C21.4731 41.6187 22.3791 41.8899 22.6941 41.9959C23.6727 42.3252 24.206 42.1372 24.206 41.4628C24.206 40.9247 24.0872 40.8637 21.6851 40.1686L19.9884 39.6775L19.9622 37.5904L19.9361 35.5034L20.2531 35.2411C20.6855 34.8834 20.7266 34.8954 21.16 35.507C23.5814 38.924 28.6197 40.5053 33.3733 39.3404C37.1392 38.4175 41.2481 35.6271 44.5413 31.7563C45.7665 30.316 45.6166 29.1843 44.1759 28.9975L43.7941 28.948L44.1688 28.5149C47.0787 25.151 48.4937 20.1853 47.8447 15.6154C47.6548 14.2783 46.7608 13.7828 45.6479 14.3978C45.2137 14.6378 45.0515 14.6335 45.0515 14.3817C45.0515 13.24 42.5849 10.3341 40.8483 9.43C40.5583 9.279 40.4857 9.17599 40.4013 8.79571C40.2843 8.26809 40.1122 7.92072 39.7769 7.53557L39.537 7.25981L39.8379 6.45887L40.139 5.65792L40.5655 5.97258C42.5076 7.40585 44.6347 6.26559 45.3989 3.38153C46.1339 0.608458 42.4971 -1.18399 40.5268 0.980014C40.2092 1.32889 40.0041 1.78686 39.184 3.97945L38.2161 6.56722L37.6311 6.56872L37.046 6.57022L36.2352 4.39094C35.1947 1.59424 34.976 1.14517 34.4277 0.67857C33.7407 0.0939599 32.6146 -0.152463 31.768 0.0964907ZM32.924 1.50642C33.8542 1.76437 34.6086 3.67286 34.0994 4.48008C33.2329 5.85401 31.3102 4.66501 31.2884 2.74162C31.2785 1.87094 32.0734 1.27058 32.924 1.50642ZM43.3697 1.65011C44.2942 2.23575 43.9629 4.42225 42.8739 4.92184C41.5043 5.55013 40.5997 4.38091 41.2209 2.7853C41.7129 1.52169 42.5058 1.1028 43.3697 1.65011ZM38.342 8.22479C38.8774 8.55285 39.0897 9.30524 38.7998 9.84721C38.1456 11.0702 36.3255 10.6362 36.3255 9.25725C36.3255 8.29012 37.4821 7.69801 38.342 8.22479ZM35.6861 11.2296L36.2396 11.7648L34.3363 16.8301C33.2896 19.6161 32.3964 21.9319 32.3516 21.9764C32.2329 22.0943 31.6019 20.1314 31.4309 19.1129C30.8685 15.7598 31.8589 13.0387 34.2852 11.2712C35.23 10.583 35.0236 10.5891 35.6861 11.2296ZM40.7556 11.11C42.2393 12.1537 44.082 14.7654 43.6362 15.1927C43.4184 15.4013 41.4969 15.5483 40.6885 15.4181L40.3492 15.3635L39.6947 13.6134C38.9152 11.5287 38.9343 11.843 39.5493 11.2257C40.171 10.6018 40.0499 10.6135 40.7556 11.11ZM38.2504 14.0407C38.4747 14.6402 38.5932 15.0756 38.5266 15.0557C37.0425 14.6121 36.8 14.5113 36.8611 14.3637C36.8962 14.2789 37.0814 13.7912 37.2727 13.28L37.6205 12.3505L37.739 12.6707C37.8042 12.8468 38.0342 13.4633 38.2504 14.0407ZM14.9361 16.1283C17.3097 16.7152 19.2671 18.7094 19.9528 21.2394C20.2837 22.4599 20.239 23.9629 19.7981 26.4415C19.2244 29.6677 19.2348 31.3408 19.8394 33.0397L20.0285 33.5711L19.2328 34.1797C16.3514 36.3837 14.2204 36.4232 11.3414 34.326C7.64741 31.6351 6.34452 27.8859 7.28722 22.66C8.16952 17.7684 11.1783 15.1991 14.9361 16.1283ZM10.6682 20.7967C9.99084 21.0307 9.677 21.2448 9.60505 21.5218C9.4187 22.2398 10.0172 22.6521 10.7753 22.3279C11.3669 22.0749 11.9975 22.0763 12.6358 22.332C13.1174 22.525 13.152 22.5269 13.3935 22.3739C14.766 21.5045 12.4681 20.1747 10.6682 20.7967ZM11.161 23.9534C10.5605 24.5339 10.9373 26.1654 11.67 26.1573C12.2288 26.1512 12.4743 25.7655 12.4743 24.8939C12.4743 23.8972 11.7532 23.3808 11.161 23.9534ZM5.50963 25.5371C5.4818 26.6535 5.51428 27.3318 5.62956 28.035C5.81417 29.1621 5.83491 29.1076 5.29041 28.9238C2.73096 28.0601 2.47296 25.3845 4.83927 24.2445C5.58438 23.8856 5.55238 23.824 5.50963 25.5371ZM12.6153 30.2335C11.2981 31.5068 15.4009 32.4803 17.459 31.3827C18.656 30.7444 17.8784 29.7579 16.5237 30.1961C15.6231 30.4874 14.6989 30.4907 13.8835 30.2055C13.1405 29.9458 12.9076 29.9509 12.6153 30.2335Z" fill="#FFD04A"/>
</svg>
