<svg width="426" height="502" viewBox="0 0 426 502" fill="none" xmlns="http://www.w3.org/2000/svg">
<path d="M366.878 15.3175L364.703 21.2946C364.65 21.438 364.554 21.5617 364.428 21.6491C364.303 21.7364 364.153 21.7832 364 21.7832C363.847 21.7832 363.698 21.7364 363.572 21.6491C363.446 21.5617 363.35 21.438 363.297 21.2946L361.122 15.3175C361.084 15.2144 361.024 15.1209 360.946 15.0432C360.869 14.9656 360.775 14.9057 360.672 14.8678L354.691 12.6943C354.547 12.6411 354.423 12.5452 354.336 12.4196C354.249 12.294 354.202 12.1447 354.202 11.9917C354.202 11.8387 354.249 11.6893 354.336 11.5637C354.423 11.4381 354.547 11.3423 354.691 11.289L360.672 9.11553C360.775 9.07757 360.869 9.0177 360.946 8.94007C361.024 8.86243 361.084 8.76887 361.122 8.66584L363.297 2.68874C363.35 2.54531 363.446 2.42161 363.572 2.33425C363.698 2.2469 363.847 2.20007 364 2.20007C364.153 2.20007 364.303 2.2469 364.428 2.33425C364.554 2.42161 364.65 2.54531 364.703 2.68874L366.878 8.66584C366.916 8.76887 366.976 8.86243 367.054 8.94007C367.131 9.0177 367.225 9.07757 367.328 9.11553L373.309 11.289C373.453 11.3423 373.577 11.4381 373.664 11.5637C373.752 11.6893 373.798 11.8387 373.798 11.9917C373.798 12.1447 373.752 12.294 373.664 12.4196C373.577 12.5452 373.453 12.6411 373.309 12.6943L367.328 14.8678C367.225 14.9057 367.131 14.9656 367.054 15.0432C366.976 15.1209 366.916 15.2144 366.878 15.3175V15.3175Z" stroke="#FFC27A" stroke-width="1.5" stroke-linecap="round" stroke-linejoin="round"/>
<path d="M277.7 473.278L277.315 486.511C277.302 486.9 277.171 487.276 276.939 487.588C276.707 487.901 276.384 488.135 276.015 488.259C275.645 488.383 275.247 488.391 274.873 488.282C274.499 488.173 274.167 487.952 273.922 487.649L265.622 477.332C265.447 477.114 265.227 476.937 264.977 476.812C264.726 476.688 264.452 476.619 264.172 476.611L250.931 476.227C250.541 476.214 250.165 476.083 249.852 475.851C249.54 475.619 249.305 475.297 249.181 474.928C249.057 474.558 249.049 474.16 249.158 473.786C249.267 473.413 249.488 473.081 249.791 472.837L260.116 464.543C260.334 464.367 260.511 464.147 260.636 463.897C260.76 463.647 260.829 463.373 260.837 463.093L261.222 449.861C261.234 449.472 261.365 449.096 261.598 448.783C261.83 448.471 262.153 448.237 262.522 448.113C262.891 447.989 263.29 447.981 263.664 448.09C264.038 448.199 264.37 448.42 264.614 448.722L272.914 459.04C273.089 459.258 273.31 459.435 273.56 459.559C273.81 459.684 274.085 459.752 274.364 459.76L287.606 460.145C287.995 460.157 288.372 460.288 288.684 460.521C288.997 460.753 289.231 461.075 289.355 461.444C289.479 461.813 289.487 462.211 289.378 462.585C289.269 462.959 289.048 463.29 288.745 463.535L278.421 471.829C278.203 472.004 278.025 472.224 277.901 472.475C277.776 472.725 277.708 472.999 277.7 473.278V473.278Z" fill="#FFD04A"/>
<path d="M274.02 434.399L277.666 445.247" stroke="#FFD04A" stroke-width="2.25" stroke-linecap="round" stroke-linejoin="round"/>
<path d="M281.271 438.002L270.415 441.645" stroke="#FFD04A" stroke-width="2.25" stroke-linecap="round" stroke-linejoin="round"/>
<path d="M289.129 443.412L291.56 450.644" stroke="#FFD04A" stroke-width="2.25" stroke-linecap="round" stroke-linejoin="round"/>
<path d="M293.963 445.813L286.726 448.242" stroke="#FFD04A" stroke-width="2.25" stroke-linecap="round" stroke-linejoin="round"/>
<circle cx="417" cy="245" r="9" fill="#630C0C"/>
<ellipse cx="394" cy="29.9792" rx="6" ry="5.99583" fill="#FFD04A"/>
<path d="M26.43 94.99L24.9843 106.695C24.9478 106.977 24.8315 107.239 24.6511 107.448C24.4706 107.657 24.2347 107.802 23.975 107.863C23.7153 107.924 23.4442 107.899 23.1981 107.791C22.9521 107.683 22.7429 107.497 22.5987 107.259L16.6648 97.296C16.5617 97.1244 16.4249 96.9788 16.264 96.8692C16.103 96.7596 15.9217 96.6886 15.7326 96.6611L4.76964 95.1175C4.50615 95.0785 4.26016 94.9543 4.0647 94.7617C3.86925 94.569 3.73369 94.3171 3.67625 94.0398C3.61881 93.7625 3.64223 93.473 3.74337 93.2104C3.84451 92.9477 4.01852 92.7243 4.24203 92.5703L13.5729 86.2345C13.7335 86.1244 13.8699 85.9784 13.9725 85.8066C14.0752 85.6347 14.1417 85.4411 14.1675 85.2392L15.6131 73.5337C15.6497 73.2524 15.766 72.9897 15.9464 72.781C16.1268 72.5723 16.3628 72.4276 16.6225 72.3663C16.8822 72.3049 17.1533 72.3299 17.3993 72.4379C17.6454 72.5459 17.8545 72.7317 17.9988 72.9704L23.9327 82.9332C24.0358 83.1047 24.1725 83.2503 24.3335 83.3599C24.4944 83.4695 24.6757 83.5405 24.8649 83.568L35.8278 85.1116C36.0913 85.1506 36.3373 85.2748 36.5328 85.4675C36.7282 85.6601 36.8638 85.912 36.9212 86.1893C36.9787 86.4667 36.9552 86.7561 36.8541 87.0188C36.753 87.2815 36.5789 87.5048 36.3554 87.6588L27.0246 93.9946C26.8639 94.1047 26.7276 94.2507 26.6249 94.4226C26.5223 94.5944 26.4558 94.788 26.43 94.99V94.99Z" fill="#FFC27A"/>
</svg>
