<svg width="48" height="49" viewBox="0 0 48 49" fill="none" xmlns="http://www.w3.org/2000/svg">
<g clip-path="url(#clip0_2123_1993)">
<path fill-rule="evenodd" clip-rule="evenodd" d="M2.05124 0.761888C1.16764 1.22351 0.724486 2.31748 1.0318 3.27851C1.12527 3.57083 2.5947 5.09436 8.65995 11.1875C14.0584 16.6107 16.2583 18.8812 16.4779 19.2563C17.0039 20.1549 17.1849 20.7879 17.2266 21.875C17.2618 22.7916 17.228 23.0301 16.7344 25.3437C16.1525 28.0709 16.1382 28.358 16.5482 29.0575C16.6774 29.278 16.9773 29.5978 17.2146 29.7682L17.6461 30.0781L14.1482 30.1026C10.7087 30.1268 10.6466 30.1307 10.4345 30.33C10.1471 30.5999 10.1477 31.0568 10.4357 31.3274C10.634 31.5137 10.7512 31.5312 11.795 31.5312H12.9375L12.9416 34.6953C12.9447 37.0924 12.9761 37.9446 13.0713 38.2111C13.6098 39.72 15.513 40.1276 16.6122 38.9695C17.1493 38.4036 17.19 38.175 17.2457 35.4146L17.2969 32.8761L17.5526 32.4901C17.8835 31.9907 18.476 31.6478 19.1439 31.5693L19.673 31.5071L21.0893 32.5094C21.8682 33.0606 22.6345 33.5566 22.7922 33.6115C22.9527 33.6675 23.3742 33.6894 23.7503 33.6613L24.4219 33.6112L26.3962 35.5678C28.5246 37.6771 28.8383 37.9005 29.6769 37.9041C30.4376 37.9074 30.9363 37.5906 32.2296 36.2825C33.2538 35.2465 33.375 35.0893 33.375 34.797C33.375 34.5766 33.3044 34.4038 33.1581 34.2663C32.837 33.9648 32.4987 34.0076 32.0583 34.4056L31.6784 34.7487L30.2465 33.3275C28.9473 32.0379 28.784 31.9062 28.4861 31.9062C28.0828 31.9062 27.75 32.2238 27.75 32.6088C27.75 32.8299 28.0069 33.136 29.2038 34.3415L30.6576 35.8055L30.3522 36.0955C29.9562 36.4716 29.6989 36.5438 29.3719 36.3705C29.2275 36.2939 28.2974 35.416 27.3049 34.4196L25.5005 32.608L29.2753 28.834L33.0502 25.0599L35.0067 27.0245C37.3863 29.414 37.3238 29.1234 35.7886 30.664C35.2104 31.2441 34.694 31.7187 34.641 31.7187C34.5879 31.7187 33.9127 31.0859 33.1406 30.3125C31.9368 29.1066 31.6955 28.9062 31.4472 28.9062C31.0805 28.9062 30.75 29.2428 30.75 29.6163C30.75 29.8499 31.0277 30.1698 32.5555 31.6962C34.8128 33.9512 34.5921 33.8987 35.9957 32.5156L36.9947 31.5312H40.9929C43.7235 31.5312 45.0635 31.5642 45.2196 31.6353C45.576 31.7976 45.6674 32.1035 45.5683 32.8028C45.049 36.4697 40.7047 41.9143 36.682 43.9401L36.0047 44.2812H33.4346C31.0632 44.2812 30.8478 44.2948 30.6479 44.4566C30.3469 44.7004 30.3469 45.2683 30.6479 45.512C30.8463 45.6727 31.0566 45.6875 33.151 45.6875H35.4375V46.1962C35.4375 46.6343 35.4031 46.7321 35.1905 46.8994C34.9441 47.0932 34.9183 47.0937 24.9375 47.0937C14.9567 47.0937 14.9309 47.0932 14.6845 46.8994C14.4719 46.7321 14.4375 46.6343 14.4375 46.1962V45.6875H21.5052C28.271 45.6875 28.5822 45.68 28.7896 45.512C29.0906 45.2683 29.0906 44.7004 28.7896 44.4566C28.582 44.2885 28.2644 44.2812 21.2139 44.2812H13.8549L13.279 44.0062C10.8625 42.8524 7.83083 39.9343 6.03064 37.0297C4.95411 35.2927 4.29814 33.5802 4.27611 32.449C4.25914 31.5823 4.25652 31.5833 6.49527 31.5489C8.27417 31.5216 8.40355 31.5077 8.60155 31.3217C8.88411 31.0563 8.8813 30.5973 8.59555 30.3288C8.38686 30.1328 8.3023 30.125 6.40311 30.125H4.42761L3.92474 30.3868C3.53905 30.5877 3.34892 30.768 3.10911 31.1602C2.79795 31.669 2.79655 31.677 2.84192 32.6093C3.0268 36.4047 7.40342 42.3233 11.9492 44.9255C12.4111 45.1898 12.8224 45.4062 12.8632 45.4062C12.9041 45.4062 12.9378 45.691 12.938 46.039C12.9387 46.892 13.0719 47.3155 13.4828 47.7712C14.1885 48.554 13.2692 48.4958 24.9375 48.4958C36.6193 48.4958 35.712 48.5539 36.3886 47.7634C36.7917 47.2925 36.9372 46.8397 36.9385 46.0516L36.9395 45.4531L37.6182 45.0965C40.9122 43.3653 44.6347 39.2588 46.259 35.5646C46.9631 33.9634 47.2392 32.3021 46.934 31.5032C46.7424 31.0014 46.2945 30.5277 45.7969 30.3004C45.4545 30.144 45.1051 30.1289 41.7858 30.127C38.2202 30.125 38.1515 30.1214 38.2467 29.9436C38.3928 29.6706 38.3633 28.7891 38.1944 28.3786C38.0944 28.1355 37.3777 27.3445 36.025 25.9841L34.0052 23.9526L34.115 23.5166C34.2317 23.0532 34.1801 22.5491 33.9746 22.1427C33.6992 21.5981 30.1532 16.6499 29.8143 16.3372C29.184 15.7557 28.5947 15.6694 27.2812 15.966C26.1616 16.2188 25.8069 16.6498 26.2524 17.2161C26.5208 17.5574 26.71 17.5903 27.4357 17.422C28.3306 17.2144 28.6649 17.2163 28.8746 17.4299C29.1064 17.6658 32.5283 22.5181 32.6492 22.7821C32.7005 22.8943 32.7175 23.0841 32.6869 23.2039C32.6563 23.3238 30.6354 25.4151 28.1961 27.8515C24.6608 31.3824 23.7124 32.2812 23.5215 32.2812C23.3608 32.2812 22.3734 31.64 20.5237 30.3349C17.8719 28.4634 17.7646 28.3759 17.739 28.0614C17.7243 27.8815 17.9268 26.7429 18.1889 25.5312C18.451 24.3195 18.6902 22.9469 18.7203 22.481C18.8084 21.1199 18.4327 19.6339 17.7044 18.4629C17.5254 18.175 14.4277 14.9954 9.93167 10.4843C5.82036 6.35932 2.42905 2.89151 2.3953 2.77807C2.25786 2.31514 2.7928 1.80701 3.25039 1.96592C3.3447 1.99873 6.79686 5.38498 10.9219 9.49104C18.7083 17.2417 18.7533 17.2826 20.0664 17.813C21.617 18.4393 24.1416 18.4548 24.4707 17.84C24.6216 17.558 24.5752 17.1663 24.3645 16.9419C24.1744 16.7395 24.1214 16.7333 23.0285 16.7841C21.73 16.8445 21.1046 16.7276 20.0692 16.231C19.5035 15.9596 18.8353 15.3194 11.9062 8.41001C6.09824 2.61861 4.26214 0.840731 3.93749 0.694294C3.32136 0.416419 2.66764 0.439856 2.05124 0.761888ZM14.4375 34.6718C14.4375 37.6875 14.445 37.82 14.625 38C14.87 38.245 15.2979 38.2404 15.5245 37.9904C15.688 37.81 15.707 37.5823 15.75 35.2951L15.7969 32.7968L16.0966 32.164L16.3964 31.5312H15.4169H14.4375V34.6718Z" fill="#630C0C"/>
<path fill-rule="evenodd" clip-rule="evenodd" d="M2.41202 0.6192C1.92115 0.779137 1.44368 1.18611 1.19937 1.6527C0.934993 2.15754 0.917368 3.02717 1.16206 3.50004C1.25534 3.68051 4.71827 7.22426 8.85734 11.375C16.1015 18.6397 16.3957 18.9482 16.724 19.625C17.175 20.5548 17.3777 21.5307 17.3081 22.4375C17.2784 22.8243 17.0423 24.1209 16.7833 25.319C16.5195 26.5398 16.3132 27.735 16.314 28.0378C16.316 28.7243 16.5623 29.1768 17.2301 29.7211L17.7258 30.125H14.2024H10.679L10.4489 30.3552C10.1556 30.6484 10.1556 31.0079 10.4489 31.3011C10.6676 31.5199 10.7347 31.5313 11.8027 31.5313H12.9265L12.9554 34.7891C12.9833 37.9193 12.9924 38.0616 13.1867 38.4219C13.6005 39.1887 14.259 39.5938 15.0918 39.5938C15.6795 39.5938 16.3358 39.2987 16.6426 38.8965C17.127 38.2613 17.1563 38.0765 17.1563 35.6467C17.1563 33.1247 17.1995 32.8586 17.7052 32.2679C18.1178 31.7858 18.6531 31.536 19.2791 31.5334C19.742 31.5314 19.8196 31.5722 21.2267 32.5571C22.8306 33.68 23.1611 33.806 23.9902 33.6118L24.4219 33.5106L26.4375 35.5117C27.5461 36.6124 28.6008 37.5891 28.7813 37.6822C29.248 37.9231 30.1255 37.9086 30.6094 37.6522C30.8156 37.5429 31.5223 36.9084 32.1797 36.2421C33.4289 34.9761 33.531 34.7958 33.2366 34.3754C32.9427 33.9558 32.3793 34.037 31.8805 34.571L31.6515 34.816L30.1864 33.3612C28.6541 31.8397 28.4957 31.7415 28.0629 32.0448C27.8117 32.2206 27.7147 32.5994 27.8516 32.8692C27.91 32.9841 28.5675 33.6931 29.3129 34.4447L30.6683 35.8112L30.287 36.1556C29.6378 36.7421 29.6486 36.7482 27.4264 34.5324L25.4531 32.5648L29.2027 28.8137C31.265 26.7505 33.0009 25.0625 33.0602 25.0625C33.1196 25.0625 34.0162 25.9365 35.0528 27.0046C36.6587 28.6593 36.9375 28.9885 36.9375 29.2298C36.9375 29.4667 36.7506 29.7004 35.7916 30.6616L34.6457 31.8103L33.1834 30.3583C31.5889 28.775 31.4298 28.6867 30.9802 29.1364C30.5141 29.6025 30.5896 29.7249 32.5573 31.6927C34.0653 33.2006 34.4094 33.5 34.6339 33.5C34.8497 33.5 35.1009 33.3051 35.902 32.5157L36.901 31.5313H41.0485H45.1961L45.4389 31.7741C45.6669 32.0021 45.678 32.0554 45.6227 32.6508C45.3008 36.1145 40.9876 41.6761 36.9371 43.8506L36.1406 44.2782L33.5517 44.2797C31.0758 44.2812 30.9521 44.2897 30.7158 44.4756C30.3742 44.7443 30.3742 45.2245 30.7158 45.4932C30.9505 45.6778 31.078 45.6875 33.2587 45.6875H35.5545L35.5105 46.2187C35.4305 47.1833 36.5133 47.0938 24.9229 47.0938H14.804L14.5739 46.8636C14.3904 46.6802 14.3438 46.5378 14.3438 46.1605V45.6875H21.4092C28.4153 45.6875 28.4768 45.686 28.7217 45.4932C29.0634 45.2245 29.0634 44.7443 28.7217 44.4756C28.4766 44.2828 28.4186 44.2813 21.1159 44.2813H13.7571L12.9237 43.842C8.91106 41.7262 4.5439 36.0839 4.24596 32.6301C4.19618 32.0538 4.21137 31.9731 4.40881 31.763C4.62612 31.5317 4.62921 31.5313 6.4894 31.5313C8.34227 31.5313 8.35352 31.5301 8.58237 31.3011C8.87571 31.0079 8.87571 30.6484 8.58237 30.3552C8.35371 30.1264 8.34115 30.125 6.50731 30.125C4.33502 30.125 4.06184 30.1837 3.46399 30.779C2.87627 31.3641 2.74418 31.8527 2.88087 32.9357C3.39077 36.9751 8.07134 42.9629 12.4331 45.1557L12.9129 45.397L12.9556 46.1349C13.0268 47.3643 13.5725 48.1481 14.5383 48.4082C14.7697 48.4705 18.4264 48.4946 25.1411 48.4782L35.3906 48.4532L35.838 48.1902C36.0841 48.0455 36.4003 47.7537 36.5406 47.5416C36.7572 47.2144 36.8029 47.0278 36.8432 46.3073L36.8906 45.4586L37.6406 45.0472C39.1633 44.212 40.4963 43.1516 42.095 41.5034C45.005 38.5033 46.9558 34.9107 47.0009 32.4688C47.0209 31.3887 46.7193 30.8197 45.8906 30.3738C45.5277 30.1784 45.397 30.1711 41.8275 30.1444C38.3947 30.1188 38.1438 30.1057 38.2039 29.9569C38.3447 29.6081 38.3624 29.0727 38.2472 28.6489C38.139 28.251 37.9012 27.9762 36.0282 26.0858C34.003 24.0417 33.9338 23.9597 34.0277 23.7125C34.1673 23.3453 34.1476 22.6731 33.9859 22.2859C33.8008 21.8432 30.2292 16.7745 29.8193 16.3729C29.6228 16.1804 29.3027 16.0013 28.9952 15.912C28.5374 15.7789 28.4239 15.7794 27.7228 15.9184C26.3177 16.1967 26.1563 16.2974 26.1563 16.8949C26.1563 17.2231 26.4413 17.4688 26.8219 17.4688C26.9588 17.4688 27.3713 17.4009 27.7385 17.318C28.1057 17.2351 28.5085 17.1929 28.6334 17.2242C28.799 17.2658 29.384 18.0234 30.7897 20.0171C32.4272 22.3394 32.7188 22.8034 32.7188 23.0872C32.7188 23.4033 32.4771 23.6631 28.2861 27.8514C24.1241 32.0107 23.8335 32.2811 23.5283 32.2779C23.2591 32.275 22.7525 31.9555 20.5839 30.4205C19.1433 29.4007 17.8839 28.4583 17.7851 28.3259C17.6057 28.0858 17.6064 28.0812 18.141 25.5662C18.5869 23.469 18.6769 22.8899 18.6781 22.1094C18.6804 20.6735 18.3011 19.4014 17.5266 18.2481C17.36 18 13.8757 14.4419 9.78368 10.3413C1.72559 2.26611 2.06168 2.64861 2.57393 2.13645C3.08468 1.62561 2.70874 1.29561 10.7307 9.29839C14.8062 13.364 18.3305 16.8178 18.5625 16.9734C19.2719 17.4492 20.141 17.8475 20.8843 18.0377C21.7008 18.2465 23.4642 18.2797 23.9968 18.0964C24.4191 17.951 24.6371 17.5778 24.5104 17.2175C24.3638 16.8007 24.0779 16.7201 23.1563 16.8355C22.1194 16.9654 21.1744 16.7837 20.0625 16.2407L19.2656 15.8515L11.7656 8.37307C7.64065 4.25998 4.12624 0.8247 3.9559 0.7392C3.54227 0.531543 2.84684 0.477543 2.41202 0.6192ZM14.3438 34.6198V37.7083L14.5633 37.9636C14.8209 38.263 15.2934 38.3092 15.5436 38.0595C15.683 37.9203 15.7099 37.584 15.7564 35.3954C15.8127 32.7478 15.8554 32.4816 16.3345 31.7891L16.5128 31.5313H15.4283H14.3438V34.6198Z" fill="#630C0C"/>
</g>
<defs>
<clipPath id="clip0_2123_1993">
<rect width="48" height="48" fill="white" transform="translate(0 0.5)"/>
</clipPath>
</defs>
</svg>
