<svg width="48" height="49" viewBox="0 0 48 49" fill="none" xmlns="http://www.w3.org/2000/svg">
<path fill-rule="evenodd" clip-rule="evenodd" d="M45.016 0.657122C44.4452 0.905733 34.7057 8.86401 27.9162 14.6295L25.6557 16.5491L18.4859 9.3941C10.79 1.71402 11.0436 1.93932 9.84648 1.71665C9.45755 1.64436 9.14859 1.64436 8.75966 1.71665C7.61433 1.92967 7.54383 1.98689 3.66207 5.85389C-0.329794 9.83045 -0.282419 9.76818 0.263892 10.3145C0.741388 10.7921 0.802994 10.7496 3.42454 8.13493L5.8402 5.72551L6.3293 6.21468L6.81841 6.70385L4.4093 9.11983C1.79497 11.7417 1.75246 11.8033 2.23005 12.2809C2.75108 12.8021 2.82804 12.7507 5.46316 10.1224L7.85776 7.73397L8.32083 8.20423L8.78391 8.67439L6.47321 10.9905C3.87301 13.5969 3.75897 13.7657 4.22917 14.3133C4.65217 14.806 4.86049 14.6613 7.42942 12.0905L9.81437 9.70385L10.3082 10.1915L10.8019 10.6793L8.41409 13.074C5.78627 15.7093 5.73487 15.7863 6.25599 16.3074C6.73349 16.785 6.7951 16.7425 9.41664 14.1278L11.8323 11.7184L12.3214 12.2076L12.8105 12.6967L10.4014 15.1127C7.78707 17.7346 7.74456 17.7962 8.22215 18.2738C8.74318 18.795 8.82014 18.7436 11.4553 16.1153L13.8499 13.7269L14.312 14.1962L14.7742 14.6655L12.4657 16.9826C9.86417 19.5937 9.75201 19.7597 10.2213 20.3062C10.6443 20.7988 10.8526 20.6542 13.4215 18.0834L15.8065 15.6967L16.3003 16.1844L16.794 16.6722L14.4062 19.0669C11.7784 21.7022 11.727 21.7791 12.2481 22.3002C12.7256 22.7779 12.7872 22.7354 15.4087 20.1207L17.8244 17.7113L18.3135 18.2005L18.8026 18.6896L16.3935 21.1056C13.7792 23.7275 13.7367 23.7891 14.2143 24.2667C14.7353 24.7879 14.8122 24.7364 17.4472 22.1083L19.8416 19.7201L20.3346 20.2193L20.8276 20.7186L19.3955 21.9726C17.3511 23.7629 13.1833 27.4749 12.6034 28.022C11.9981 28.5931 11.9843 28.7719 12.4875 29.5214C13.4807 31.0007 13.5841 32.8753 12.758 34.4254C12.3363 35.2169 9.27695 38.2149 8.52354 38.5752C5.24923 40.1409 1.52223 37.838 1.4992 34.235C1.4713 29.8731 6.57301 27.7191 9.77551 30.7407C10.5193 31.4423 10.8174 31.5255 11.2232 31.1442C11.5996 30.7905 11.5348 30.468 10.9649 29.8607C7.07157 25.7114 0.0447123 28.499 0.0354433 34.1966C0.0288894 38.2027 3.86561 41.29 7.72237 40.3821L8.24818 40.2583L8.12141 40.7346C7.26903 43.9359 9.57346 47.5887 12.9142 48.3321C18.6301 49.6039 22.8782 42.9962 19.3417 38.3341L18.8641 37.7044L21.2461 35.0274C23.1755 32.8589 27.5867 27.8564 27.7199 27.6858C27.7376 27.663 27.983 27.8724 28.2652 28.1512L28.7782 28.6579L26.3904 31.0527C23.7626 33.688 23.7112 33.7649 24.2323 34.286C24.7098 34.7637 24.7714 34.7212 27.3929 32.1065L29.8086 29.6971L30.2977 30.1862L30.7868 30.6754L28.3777 33.0914C25.7634 35.7133 25.7209 35.7749 26.1985 36.2524C26.7195 36.7736 26.7964 36.7222 29.4314 34.0941L31.8258 31.7059L32.3135 32.1997L32.8011 32.6936L30.4147 35.0789C27.8443 37.6481 27.6997 37.8565 28.1922 38.2795C28.7386 38.7488 28.9046 38.6367 31.5154 36.0348L33.8322 33.726L34.3015 34.1883L34.7707 34.6505L32.3826 37.0454C29.7547 39.6808 29.7033 39.7578 30.2244 40.2789C30.7019 40.7566 30.7635 40.714 33.385 38.0994L35.8007 35.6899L36.2898 36.1791L36.7789 36.6683L34.3698 39.0843C31.7555 41.7061 31.713 41.7678 32.1906 42.2453C32.7116 42.7665 32.7885 42.7151 35.4235 40.0869L37.8179 37.6988L38.3056 38.1926L38.7932 38.6865L36.4068 41.0717C33.8364 43.641 33.6918 43.8494 34.1843 44.2724C34.7307 44.7417 34.8967 44.6296 37.5075 42.0277L39.8243 39.7188L40.2936 40.1811L40.7628 40.6433L38.3747 43.0383C35.7468 45.6737 35.6954 45.7507 36.2165 46.2718C36.694 46.7494 36.7556 46.7069 39.3771 44.0923L41.7928 41.6828L42.2819 42.172L42.771 42.6612L40.3619 45.0771C37.7476 47.699 37.7051 47.7607 38.1827 48.2382C38.7242 48.7799 38.6718 48.8194 42.5657 44.9332C46.9319 40.5756 47.1817 40.18 46.7159 38.3613C46.4681 37.3944 46.4766 37.4035 39.0481 29.9591L31.9317 22.8272L33.4727 21.0165C39.3368 14.1264 47.4448 4.233 47.8025 3.53118C48.6286 1.91057 46.7015 -0.0770066 45.016 0.657122ZM31.4138 16.0977C23.8801 23.6327 17.6776 29.8586 17.6306 29.9328C17.4092 30.283 17.8543 30.9576 18.3067 30.9576C18.4702 30.9576 21.927 27.5583 32.3278 17.1693C39.9201 9.58568 45.9853 3.5706 45.8061 3.80236C41.2859 9.64804 28.8671 24.3271 21.0699 33.0407L19.5829 34.7023L19.3225 34.5169C18.7227 34.0897 18.1976 33.1885 18.1976 32.5861C18.1976 32.4079 17.7325 32.0813 17.4785 32.0813C16.3429 32.0813 16.7576 34.2013 18.1277 35.3999L18.6041 35.8167L17.9948 36.5007C16.8901 37.7407 16.881 37.8034 17.6839 38.636C19.368 40.3828 19.6558 42.8452 18.4015 44.7761C15.753 48.8534 9.4392 46.9982 9.45521 42.1475C9.46111 40.3672 9.81811 39.7287 12.1429 37.3403C13.5133 35.9325 13.8044 35.5819 14.0989 34.9841C14.9744 33.2074 14.9988 31.1919 14.165 29.5397C14.0142 29.241 13.8908 28.9546 13.8908 28.9032C13.8908 28.602 25.929 18.1501 34.4418 11.0603C39.5619 6.79618 44.9559 2.39777 45.0652 2.39777C45.0908 2.39777 38.9477 8.56277 31.4138 16.0977ZM10.1253 3.29062C10.3693 3.39128 12.5772 5.5373 17.5075 10.4658L24.5415 17.4973L23.4528 18.4383C22.8539 18.9557 22.2675 19.465 22.1498 19.5697L21.9355 19.7603L14.4033 12.2274L6.87103 4.69464L7.45329 4.10715C8.37841 3.17357 9.21937 2.91663 10.1253 3.29062ZM45.1694 38.3083C45.5951 39.2156 45.3428 40.103 44.3911 41.0461L43.8018 41.6302L36.2769 34.1039C29.2658 27.0916 28.7609 26.5652 28.8818 26.3954C28.9531 26.2952 29.4539 25.7006 29.9945 25.0741L30.9775 23.9351L37.9857 30.9344C42.7652 35.7079 45.0497 38.0528 45.1694 38.3083ZM5.32628 30.8272C2.78825 31.6357 1.99823 34.8037 3.86823 36.6741C5.23649 38.0424 7.47117 38.0424 8.83943 36.6741C11.3938 34.1193 8.75882 29.7339 5.32628 30.8272ZM7.35489 32.3745C8.52663 32.9618 8.76893 34.8098 7.79072 35.6988C6.29279 37.0603 3.90082 35.7438 4.33627 33.7976C4.64964 32.397 6.06677 31.7289 7.35489 32.3745ZM13.2622 38.7664C10.1936 39.7674 9.92587 43.9946 12.8445 45.363C14.0875 45.9457 15.8014 45.6297 16.7968 44.6342C19.3296 42.101 16.6544 37.66 13.2622 38.7664ZM15.2802 40.3379C16.6029 40.975 16.7284 43.0257 15.4943 43.8338C13.4035 45.2027 11.1224 42.5569 12.8016 40.7106C13.3974 40.0556 14.3854 39.907 15.2802 40.3379Z" fill="#630C0C"/>
</svg>
