<svg width="48" height="49" viewBox="0 0 48 49" fill="none" xmlns="http://www.w3.org/2000/svg">
<g clip-path="url(#clip0_2123_1931)">
<path fill-rule="evenodd" clip-rule="evenodd" d="M6.20804 0.741688C5.66936 1.01009 5.30711 1.38903 5.04995 1.95312C4.88945 2.30534 4.87895 2.75919 4.87698 9.41975C4.87576 13.5877 4.91457 16.9117 4.97101 17.4823C5.19554 19.7497 5.66954 21.879 6.54367 24.5469C7.21464 26.5947 8.11989 28.2957 9.24507 29.6231C9.95495 30.4604 13.9033 34.758 14.1228 34.9322C14.5014 35.2326 15.0074 35.3882 15.527 35.3642C16.025 35.3411 16.0375 35.3473 16.7572 35.972C17.1571 36.3192 17.8143 36.8225 18.2176 37.0906L18.9509 37.5781L18.9207 38.8978C18.892 40.1508 18.8777 40.2367 18.6364 40.6011C18.1625 41.3168 18.0093 41.3817 13.8414 42.634C9.88933 43.8213 9.07136 44.1359 8.31414 44.7601C7.09342 45.7663 7.37936 47.7472 8.83286 48.3544C9.14298 48.484 10.815 48.5 23.9999 48.5C40.2431 48.5 39.1697 48.537 39.782 47.956C40.2273 47.5332 40.4446 47.02 40.4446 46.3906C40.4446 45.4074 39.9861 44.8112 38.722 44.1507C38.0854 43.818 36.0951 43.1562 35.7311 43.1562C35.4518 43.1562 35.0624 43.5601 35.0624 43.8499C35.0624 44.2878 35.4117 44.5159 36.7199 44.9323C38.2698 45.4258 38.9384 45.8476 38.9815 46.3592C39.0046 46.6332 38.9622 46.7348 38.7579 46.8955L38.5059 47.0938H23.9999H9.49398L9.24695 46.8994C9.06611 46.7572 8.99992 46.6193 8.99992 46.3844C8.99992 46.1155 9.06423 46.0165 9.39836 45.7713C10.0103 45.3223 10.3528 45.1999 14.383 43.9895C16.4497 43.3688 18.3426 42.751 18.5894 42.6167C19.1925 42.2887 19.7372 41.6776 20.0807 40.9435C20.3216 40.4285 20.3717 40.1899 20.4145 39.3516C20.4582 38.4944 20.4845 38.3736 20.6152 38.4279C22.6047 39.2533 24.8324 39.3556 26.8523 38.7142L27.5367 38.4969L27.5875 39.4202C27.6297 40.1846 27.6871 40.4475 27.9205 40.9465C28.2628 41.6779 28.8081 42.2892 29.4104 42.6166C30.0991 42.9911 32.6708 43.7323 32.934 43.6322C33.4471 43.4372 33.5785 42.806 33.1778 42.4614C33.0509 42.3523 32.3245 42.0789 31.5449 41.8469C30.2225 41.4534 30.115 41.4035 29.703 40.9923C29.1548 40.4453 29.0636 40.1247 29.063 38.7417C29.0624 37.7057 29.0723 37.6506 29.2734 37.5584C29.5909 37.4128 30.9141 36.4095 31.513 35.8601C32.0066 35.4072 32.0739 35.375 32.5239 35.375C33.0288 35.375 33.5229 35.2133 33.8769 34.9322C34.1019 34.7535 38.01 30.5017 38.7303 29.652C40.2601 27.8472 41.2945 25.5625 42.2386 21.9033C42.9727 19.0582 43.1249 17.5166 43.1249 12.9282V9.34522L42.908 9.14131C42.6197 8.87056 42.1838 8.87638 41.9225 9.15444C41.7475 9.34081 41.7187 9.47994 41.7187 10.1388V10.9062H38.7655H35.8124V6.78566C35.8124 3.90397 35.8445 2.59466 35.9192 2.43078C36.132 1.96362 36.4451 1.90625 38.7797 1.90663C40.7553 1.90691 40.9457 1.92153 41.2288 2.09413C41.3977 2.19706 41.577 2.38953 41.6273 2.52181C41.6775 2.654 41.7187 3.73166 41.7187 4.91666V7.07103L41.9488 7.30109C42.23 7.58234 42.5502 7.59472 42.8779 7.33691L43.1249 7.14266L43.1229 4.73534C43.1211 2.60825 43.1009 2.28453 42.9499 1.95312C42.6927 1.38903 42.3305 1.01009 41.7918 0.741688C41.3074 0.500281 41.3041 0.5 38.8284 0.5C37.1399 0.5 36.2268 0.53675 35.9639 0.615219C35.728 0.685625 35.3901 0.913438 35.0947 1.20116C34.3173 1.95819 34.3124 1.9925 34.3124 6.66828V10.6463L33.4883 9.86225C28.2034 4.83434 19.804 4.82553 14.5322 9.84237L13.6993 10.6349L13.67 8.93403C13.6413 7.27625 13.6349 7.22853 13.4192 7.05406C13.1365 6.82541 12.7383 6.82541 12.4556 7.05406C12.2386 7.22956 12.2337 7.26903 12.2053 9.06969L12.1763 10.9062H9.22876H6.28117V6.83422C6.28117 4.41584 6.31829 2.66459 6.37257 2.52181C6.42282 2.38953 6.60217 2.19594 6.77101 2.0915C7.06061 1.91253 7.20779 1.90316 9.35936 1.92744L11.6406 1.95312L11.914 2.25931C12.1798 2.55697 12.1874 2.59344 12.1888 3.57181C12.1897 4.19094 12.2355 4.66775 12.308 4.81091C12.5534 5.29597 13.2953 5.29887 13.5451 4.81578C13.7413 4.43637 13.737 2.85931 13.538 2.18112C13.3524 1.54859 12.6261 0.791469 12.0359 0.615219C11.773 0.53675 10.8599 0.5 9.17148 0.5C6.69573 0.5 6.69245 0.500281 6.20804 0.741688ZM22.1249 7.67544C20.4032 7.94769 18.5457 8.66984 17.0742 9.63931C16.2303 10.1952 14.9631 11.3803 14.234 12.2952L13.6874 12.981V14.4688C13.6874 16.0455 13.7432 16.3337 14.1257 16.7348L14.3646 16.9852L14.9188 16.2961C15.9695 14.9901 16.7828 14.3599 19.5468 12.7101C22.0579 11.2113 23.1204 10.6544 24.5024 10.1127C25.6963 9.64466 27.7258 9.08975 28.6405 8.98137C29.4852 8.88116 29.5251 8.81459 28.9052 8.53934C26.945 7.66887 24.2989 7.33166 22.1249 7.67544ZM29.9999 10.2616C28.8805 10.3746 27.0595 10.7726 25.9871 11.1385C24.8066 11.5414 23.9874 11.8624 24.0303 11.9053C24.049 11.9241 24.5119 11.9818 25.0587 12.0337C28.1971 12.3311 31.155 13.902 33.0785 16.293L33.6353 16.9852L33.8741 16.7348C34.2564 16.3341 34.3124 16.0452 34.3124 14.4766V12.9967L33.8565 12.3968C33.6057 12.0669 33.0165 11.4278 32.5472 10.9766C31.5814 10.0481 31.7226 10.0877 29.9999 10.2616ZM6.28117 13.9395C6.28117 17.5481 6.66301 20.0673 7.72829 23.4861C8.42654 25.7269 9.04361 27.0022 10.0778 28.3416C10.8731 29.3718 14.9287 33.7368 15.1982 33.8528C15.6557 34.0497 16.1249 33.7243 16.1249 33.2102C16.1249 33.1107 15.0547 31.1842 13.7466 28.9287C12.4384 26.6734 11.2544 24.6026 11.1154 24.3269C10.682 23.4676 10.4999 22.5484 10.4999 21.2201C10.4999 20.1001 10.5122 20.0211 10.7169 19.8288C10.9857 19.5763 11.4678 19.5616 11.7049 19.7987C11.8505 19.9443 11.8869 20.1749 11.9303 21.2284C11.9941 22.7749 12.1463 23.2921 12.94 24.6597C13.2633 25.2163 13.5384 25.6854 13.5516 25.7018C13.6153 25.7817 13.9751 25.4608 14.0649 25.2438C14.1326 25.0804 14.1571 24.0748 14.138 22.2413C14.11 19.5458 14.1041 19.473 13.8792 18.9746C13.7527 18.6942 13.4415 18.209 13.1876 17.8964C12.9338 17.5839 12.6154 17.0961 12.4802 16.8125C12.2427 16.3145 12.2333 16.2287 12.2028 14.3047L12.1713 12.3125H9.22623H6.28117V13.9395ZM35.797 14.3047C35.7666 16.2287 35.7571 16.3145 35.5196 16.8125C35.3845 17.0961 35.0661 17.5839 34.8122 17.8964C34.5583 18.209 34.2472 18.6942 34.1206 18.9746C33.8957 19.473 33.8899 19.5458 33.8619 22.2413C33.8427 24.0748 33.8672 25.0804 33.9349 25.2438C34.0247 25.4608 34.3845 25.7817 34.4483 25.7018C34.4614 25.6854 34.7283 25.2289 35.0414 24.6875C35.8524 23.2848 36.0112 22.7519 36.0715 21.2284C36.1134 20.1732 36.1491 19.9446 36.295 19.7987C36.5424 19.5513 37.0434 19.573 37.2961 19.8419C37.4821 20.0399 37.4997 20.1568 37.4983 21.1779C37.4964 22.4685 37.3353 23.3511 36.9519 24.1704C36.8033 24.4879 35.6002 26.6116 34.2783 28.8898C32.9564 31.1678 31.8749 33.1125 31.8749 33.2113C31.8749 33.5174 31.9809 33.689 32.259 33.8328C32.4808 33.9476 32.5735 33.9509 32.8016 33.8528C33.0712 33.7368 37.1267 29.3718 37.9221 28.3416C38.9562 27.0022 39.5733 25.7269 40.2715 23.4861C41.3368 20.0673 41.7187 17.5481 41.7187 13.9395V12.3125H38.7736H35.8285L35.797 14.3047ZM22.7812 13.4982C19.7245 13.9573 17.131 15.5142 15.5832 17.8192L15.2204 18.3594L15.4078 18.9219C15.5735 19.4193 15.5996 19.8008 15.634 22.2207C15.6816 25.5627 15.6438 25.7694 14.844 26.548L14.3292 27.0491L14.9647 28.1417C17.0406 31.7115 17.5325 32.6142 17.548 32.8815C17.5786 33.4084 17.5195 33.8238 17.3688 34.1417L17.2201 34.4554L17.6715 34.8448C18.9208 35.9226 20.3948 36.8146 21.6748 37.2676C23.7261 37.9935 25.9973 37.762 27.9843 36.6244C28.9207 36.0882 29.7149 35.5288 30.3501 34.9577L30.8409 34.5164L30.6867 34.2192C30.602 34.0557 30.4988 33.7742 30.4574 33.5938C30.2931 32.8777 30.3226 32.8153 33.0362 28.1417L33.6706 27.0491L33.1558 26.548C32.356 25.7694 32.3183 25.5627 32.3658 22.2207C32.4002 19.8008 32.4264 19.4193 32.592 18.9219L32.7794 18.3594L32.4166 17.8192C30.9483 15.6326 28.3711 14.018 25.6427 13.5754C24.8736 13.4507 23.368 13.4101 22.7812 13.4982ZM17.0624 24.6213C16.7322 24.7883 16.5446 25.2086 16.6738 25.492C16.83 25.8348 17.5022 26.2671 18.2167 26.484C19.1228 26.7593 20.1056 26.6916 20.9517 26.2956C21.2862 26.1391 21.6659 25.905 21.7956 25.7754C22.1967 25.3742 22.0674 24.8036 21.5288 24.5988C21.3147 24.5174 21.1763 24.5536 20.6234 24.8353C20.0703 25.1172 19.8759 25.168 19.3495 25.168C18.8266 25.168 18.6216 25.1152 18.0525 24.834C17.2752 24.4499 17.3637 24.469 17.0624 24.6213ZM26.4459 24.6022C25.9314 24.8079 25.8129 25.384 26.2043 25.7754C26.635 26.2062 27.5795 26.575 28.3948 26.6308C30.027 26.7427 31.681 25.8019 31.2891 24.9844C31.2236 24.8478 31.0531 24.68 30.91 24.6115C30.6718 24.4973 30.592 24.5155 29.9607 24.8274C29.3779 25.1154 29.1755 25.168 28.6503 25.168C28.1235 25.168 27.9296 25.1172 27.3738 24.834C27.0133 24.6503 26.708 24.5027 26.6951 24.5059C26.6823 24.5092 26.5702 24.5525 26.4459 24.6022ZM21.5552 31.8053C21.105 32.2555 21.2347 32.6629 21.9692 33.1062C23.2149 33.8581 24.7867 33.8571 26.0348 33.1038C26.83 32.6238 26.9123 32.013 26.233 31.6317C26.0015 31.5018 25.9451 31.5146 25.3117 31.8404C24.7275 32.1409 24.551 32.1875 23.9971 32.1875C23.4483 32.1875 23.2677 32.1408 22.7278 31.8594C22.3815 31.6789 22.0377 31.5312 21.9638 31.5312C21.8898 31.5312 21.7059 31.6545 21.5552 31.8053Z" fill="#630C0C"/>
<path fill-rule="evenodd" clip-rule="evenodd" d="M6.65595 0.587592C6.0118 0.78353 5.43402 1.27215 5.0967 1.90628C4.93067 2.21837 4.92214 2.59778 4.92289 9.68753C4.92373 17.7026 4.9332 17.894 5.44948 20.4219C5.75886 21.9363 6.53052 24.5792 7.00958 25.7656C7.85848 27.8675 8.56198 28.8505 11.6077 32.1914C14.3961 35.2499 14.4845 35.3207 15.5124 35.3255C16.0819 35.3282 16.0971 35.3352 16.6932 35.871C17.0254 36.1696 17.6859 36.6758 18.161 36.996L19.025 37.5782L19.026 38.5625C19.0265 39.1039 18.9836 39.7368 18.9306 39.9688C18.8021 40.5324 18.4272 41.0554 17.9525 41.3336C17.7386 41.459 15.868 42.0679 13.7959 42.6868C11.5021 43.3717 9.77117 43.9413 9.37123 44.1427C8.59498 44.5336 8.0248 45.0231 7.77477 45.5133C7.32983 46.3854 7.70558 47.6328 8.5752 48.1705L9.03242 48.4532H24.0003H38.9681L39.4253 48.1705C40.295 47.6328 40.6707 46.3854 40.2258 45.5133C39.9772 45.026 39.4066 44.5341 38.645 44.1506C37.8675 43.7591 35.8739 43.1405 35.6478 43.2207C35.3417 43.3293 35.1565 43.5601 35.1565 43.8333C35.1565 44.3223 35.2981 44.4439 36.1646 44.6992C37.8281 45.1893 38.8099 45.6965 39.0045 46.1665C39.0867 46.365 39.0782 46.4775 38.9643 46.6978C38.8848 46.8515 38.7514 47.0035 38.6679 47.0356C38.3877 47.1431 9.47305 47.1025 9.27083 46.9943C9.0027 46.8509 8.87511 46.4584 8.99914 46.1589C9.1183 45.8714 9.77614 45.4267 10.5003 45.1444C10.7839 45.0339 12.5936 44.4756 14.5219 43.9038C16.4502 43.3321 18.224 42.7649 18.4637 42.6434C19.0864 42.3278 19.6715 41.7048 20.007 41C20.2651 40.458 20.3006 40.2793 20.3288 39.3828C20.3464 38.8285 20.3967 38.375 20.4408 38.375C20.4848 38.375 20.8924 38.4994 21.3465 38.6516C23.2502 39.2892 24.932 39.2499 27.4456 38.5091C27.6532 38.4479 27.6565 38.46 27.6565 39.2849C27.6565 40.8378 28.3214 42.0272 29.5315 42.639C30.0436 42.8978 32.4243 43.625 32.7595 43.625C33.2931 43.625 33.578 42.8902 33.1934 42.5057C33.0934 42.4056 32.7032 42.2337 32.3262 42.1234C31.9493 42.0133 31.3677 41.8404 31.0339 41.7393C29.4197 41.2507 28.9762 40.5836 28.9713 38.6361L28.969 37.7253L29.7752 37.1889C30.2185 36.8939 30.8979 36.3568 31.285 35.9953L31.9888 35.338L32.5649 35.3242C32.9408 35.3152 33.2731 35.2427 33.5216 35.1155C33.777 34.9847 34.6448 34.1081 36.158 32.4525C37.3985 31.0951 38.5724 29.7946 38.7665 29.5625C40.2801 27.7524 41.3585 25.2906 42.2778 21.5469C42.9671 18.7395 43.1229 17.0947 43.1243 12.613L43.1253 9.39775L42.8847 9.15719C42.6899 8.96237 42.5875 8.92787 42.3469 8.97606C41.8564 9.07412 41.7694 9.23528 41.7328 10.1127L41.6998 10.9063H38.7094H35.719V6.87203C35.719 2.54247 35.7348 2.38412 36.1987 2.05919C36.386 1.92803 36.7402 1.90628 38.6885 1.90628C40.2501 1.90628 41.0371 1.94125 41.206 2.01831C41.677 2.23291 41.719 2.46015 41.719 4.79519C41.719 6.82665 41.7296 6.95697 41.9134 7.1905C42.1592 7.50306 42.6586 7.52922 42.9435 7.24431C43.1302 7.05756 43.1358 6.97 43.1075 4.64275C43.0817 2.5089 43.0585 2.197 42.9038 1.90628C42.6602 1.44822 42.2079 0.988561 41.7659 0.749592C41.4139 0.55928 41.243 0.545124 38.9738 0.517655C36.2759 0.48503 35.8544 0.546155 35.2353 1.05915C35.0465 1.21553 34.7829 1.56278 34.6493 1.83081L34.4065 2.31812V6.53912V10.7602L33.8206 10.1927C31.7547 8.19184 29.5149 6.98069 26.7835 6.38753C25.3989 6.08687 22.6016 6.08687 21.217 6.38753C18.6224 6.95106 16.2908 8.18369 14.4 9.99147C13.9825 10.3907 13.6303 10.7177 13.6175 10.718C13.6046 10.7184 13.594 9.94141 13.594 8.99125V7.26362L13.347 7.06937C13.2111 6.9625 13.027 6.87503 12.9378 6.87503C12.8485 6.87503 12.6644 6.9625 12.5285 7.06937L12.2815 7.26362V9.085V10.9063H9.28152H6.28152V6.77659C6.28152 2.29731 6.28667 2.24969 6.79452 2.01831C6.96345 1.94125 7.75039 1.90628 9.31198 1.90628C11.2603 1.90628 11.6146 1.92803 11.8018 2.05919C12.1628 2.31203 12.2815 2.74722 12.2815 3.81831C12.2815 4.76603 12.2898 4.8054 12.5285 4.99319C12.8402 5.23834 13.0354 5.23834 13.347 4.99319C13.5916 4.80081 13.594 4.78684 13.594 3.55853C13.594 2.41178 13.5756 2.28128 13.3512 1.83081C13.2176 1.56278 12.954 1.21581 12.7653 1.05972C12.1641 0.562467 11.7542 0.499092 9.19414 0.508092C7.92739 0.512499 6.78514 0.548311 6.65595 0.587592ZM22.2659 7.59212C19.6385 7.99928 17.159 9.23097 15.3248 11.04C14.8505 11.5079 14.267 12.159 14.0282 12.4869L13.594 13.0832L13.5946 14.4088C13.5951 15.9206 13.6643 16.2628 14.062 16.7204L14.3458 17.0469L14.6009 16.7188C15.152 16.0098 16.4574 14.7438 17.1406 14.2557C18.179 13.5139 21.8988 11.3359 23.1355 10.7456C23.717 10.4681 24.7505 10.055 25.4324 9.82788C26.6153 9.43366 28.7625 8.93753 29.2855 8.93753C29.4208 8.93753 29.5315 8.90209 29.5315 8.85887C29.5315 8.69238 28.163 8.15387 26.9534 7.84431C26.1451 7.63741 25.7769 7.60047 24.2815 7.57647C23.3276 7.56109 22.4206 7.56812 22.2659 7.59212ZM29.1565 10.3394C28.5635 10.4307 27.6399 10.6178 27.104 10.7552C26.1375 11.0029 24.0353 11.7737 23.8643 11.9431C23.8086 11.9983 24.0016 12.0315 24.38 12.0317C25.8418 12.0326 28.0535 12.6121 29.4378 13.3569C30.8406 14.1117 32.2565 15.3096 33.3556 16.6719L33.6582 17.0469L33.9402 16.7204C34.3363 16.2618 34.4054 15.9187 34.406 14.4088L34.4065 13.0832L33.9724 12.4869C33.7336 12.159 33.1425 11.5005 32.6588 11.0235L31.7795 10.1563L31.007 10.1648C30.5823 10.1695 29.7495 10.2481 29.1565 10.3394ZM6.3073 14.9141C6.37536 18.5626 6.70058 20.4975 7.80917 23.8517C8.41273 25.6775 8.81595 26.5559 9.56389 27.6742C10.1275 28.5168 14.8529 33.7984 15.1426 33.9096C15.4125 34.0131 15.6243 33.9742 15.8782 33.7744C16.3623 33.3937 16.3119 33.2768 13.8164 28.9857C12.5465 26.8022 11.369 24.7414 11.1997 24.4063C10.7051 23.4272 10.5656 22.7503 10.5559 21.2814C10.5474 20.0268 10.5544 19.9788 10.7685 19.8048C11.0497 19.5764 11.3565 19.5761 11.6383 19.8041C11.8467 19.9726 11.8629 20.0617 11.9165 21.3275C11.983 22.9024 12.0933 23.2639 12.9646 24.7622C13.5674 25.799 13.6673 25.861 14.006 25.4074C14.1921 25.1581 14.205 25.0118 14.2316 22.8363C14.2471 21.5675 14.2181 20.2618 14.1671 19.9345C14.045 19.1502 13.7324 18.5028 13.0927 17.7093C12.3264 16.7588 12.2815 16.5681 12.2815 14.2646V12.3125H9.27008H6.25864L6.3073 14.9141ZM35.719 14.2173C35.719 16.5218 35.6596 16.7792 34.9135 17.7032C34.2685 18.502 33.9559 19.148 33.8334 19.9345C33.7824 20.2618 33.7535 21.5675 33.7689 22.8363C33.7955 25.0118 33.8084 25.1581 33.9946 25.4074C34.3368 25.8658 34.4368 25.8027 35.043 24.7462C35.9195 23.2187 36.0178 22.8957 36.0841 21.3275C36.1376 20.0617 36.1538 19.9726 36.3622 19.8041C36.644 19.5761 36.9508 19.5764 37.232 19.8048C37.4462 19.9788 37.4531 20.0268 37.4447 21.2814C37.4349 22.7512 37.2984 23.4115 36.8006 24.3981C36.6293 24.7378 35.451 26.8022 34.1822 28.9857C31.6888 33.2766 31.6384 33.3938 32.1223 33.7744C32.3763 33.9742 32.588 34.0131 32.858 33.9096C33.1057 33.8145 37.79 28.6207 38.3218 27.8515C39.059 26.7852 39.6135 25.6042 40.1683 23.9194C41.305 20.4674 41.6249 18.5785 41.6932 14.9141L41.7419 12.3125H38.7305H35.719V14.2173ZM23.1096 13.4534C20.1793 13.6714 17.543 15.1544 15.6748 17.6356L15.161 18.3179L15.335 18.8074C15.488 19.2376 15.5131 19.6667 15.5417 22.3457L15.5741 25.3944L15.3066 25.9065C15.1551 26.1964 14.8715 26.5463 14.6526 26.7133L14.2661 27.008L15.8032 29.6611C16.6486 31.1202 17.3882 32.4592 17.4468 32.6367C17.578 33.0343 17.5184 33.741 17.3201 34.1384L17.1716 34.436L17.7032 34.9145C18.8806 35.9748 20.9903 37.1774 22.2291 37.4944C22.7512 37.6281 23.2458 37.6712 24.2346 37.6689C25.4898 37.666 25.5881 37.6516 26.4846 37.3378C27.8178 36.8713 29.2824 35.9708 30.4232 34.9164L30.8687 34.5047L30.7086 34.2337C30.4987 33.8783 30.4177 33.0489 30.5529 32.6393C30.612 32.4604 31.352 31.1202 32.1973 29.6611L33.7344 27.008L33.3479 26.7133C33.129 26.5463 32.8454 26.1964 32.6939 25.9065L32.4264 25.3944L32.4589 22.3457C32.4875 19.6667 32.5125 19.2376 32.6655 18.8074L32.8395 18.3179L32.3228 17.6356C30.0478 14.6308 26.8424 13.1758 23.1096 13.4534ZM16.8753 24.7813C16.644 25.0126 16.633 25.4456 16.8518 25.7051C17.124 26.0279 18.0341 26.4417 18.73 26.5592C19.5171 26.6919 20.1838 26.5933 21.0121 26.2216C21.9706 25.7913 22.2617 25.2028 21.7359 24.7578C21.4578 24.5224 21.2016 24.5532 20.5716 24.8974C20.094 25.1584 19.9225 25.2012 19.3519 25.2021C18.7853 25.203 18.601 25.1584 18.0965 24.8985C17.4127 24.5462 17.1368 24.5197 16.8753 24.7813ZM26.2646 24.7578C25.7389 25.2028 26.03 25.7913 26.9885 26.2216C28.136 26.7365 29.237 26.7408 30.3501 26.2349C31.2555 25.8234 31.5726 25.2287 31.1253 24.7813C30.8636 24.5196 30.5877 24.5462 29.9045 24.8985C29.4012 25.1581 29.2155 25.2032 28.6492 25.203C28.0762 25.2029 27.908 25.1609 27.4289 24.8983C26.7992 24.5532 26.543 24.5223 26.2646 24.7578ZM21.5787 31.7745C21.4047 31.8962 21.3706 31.9958 21.3937 32.3135C21.4192 32.6633 21.4688 32.7344 21.8793 33.0087C23.0864 33.8154 24.9141 33.8154 26.1213 33.0087C26.5317 32.7344 26.5813 32.6633 26.6068 32.3135C26.63 31.9958 26.5958 31.8962 26.4218 31.7745C26.1125 31.5578 25.8801 31.5877 25.217 31.9297C24.7239 32.1841 24.5228 32.2344 24.0003 32.2344C23.4777 32.2344 23.2766 32.1841 22.7835 31.9297C22.1204 31.5877 21.888 31.5578 21.5787 31.7745Z" fill="#630C0C"/>
</g>
<defs>
<clipPath id="clip0_2123_1931">
<rect width="48" height="48" fill="white" transform="translate(0 0.5)"/>
</clipPath>
</defs>
</svg>
