<svg width="32" height="32" viewBox="0 0 32 32" fill="none" xmlns="http://www.w3.org/2000/svg">
<rect width="32" height="32" rx="16" fill="white"/>
<g clip-path="url(#clip0_2492_1475)">
<path fill-rule="evenodd" clip-rule="evenodd" d="M11.8054 20.2786C12.0657 20.5389 12.0657 20.961 11.8054 21.2214L10.4721 22.5547C10.2117 22.8151 9.7896 22.8151 9.52925 22.5547C9.2689 22.2944 9.2689 21.8723 9.52925 21.6119L10.8626 20.2786C11.1229 20.0182 11.545 20.0182 11.8054 20.2786ZM20.1959 20.2786C20.4563 20.0182 20.8784 20.0182 21.1387 20.2786L22.4721 21.6119C22.7324 21.8723 22.7324 22.2944 22.4721 22.5547C22.2117 22.8151 21.7896 22.8151 21.5292 22.5547L20.1959 21.2214C19.9356 20.961 19.9356 20.5389 20.1959 20.2786Z" fill="#1C1C1C"/>
<path d="M10.1758 9.43202C10.5827 9.36658 10.9467 9.52435 11.2347 9.66835L11.6317 9.86685C11.961 10.0315 12.0945 10.432 11.9298 10.7613C11.7652 11.0906 11.3647 11.2241 11.0354 11.0594L10.6384 10.8609C10.5117 10.7976 10.437 10.7686 10.3915 10.7559L10.3886 10.7551L10.3862 10.7567C10.3471 10.783 10.2852 10.8341 10.1848 10.9345C10.0843 11.035 10.0332 11.0969 10.007 11.136L10.0053 11.1384L10.0061 11.1413C10.0188 11.1868 10.0478 11.2615 10.1111 11.3882L10.3096 11.7852C10.4743 12.1145 10.3408 12.515 10.0115 12.6796C9.68217 12.8443 9.28173 12.7108 9.11707 12.3815L8.91857 11.9845C8.77457 11.6965 8.61679 11.3325 8.68223 10.9256C8.74776 10.5181 9.01209 10.2216 9.24195 9.99173C9.4718 9.76188 9.76832 9.49754 10.1758 9.43202Z" fill="#1C1C1C"/>
<path d="M21.6089 10.7559C21.5634 10.7686 21.4888 10.7976 21.362 10.8609L20.965 11.0594C20.6357 11.2241 20.2353 11.0906 20.0706 10.7613C19.9059 10.432 20.0394 10.0315 20.3687 9.86685L20.7657 9.66835C21.0537 9.52435 21.4177 9.36658 21.8246 9.43202C22.2321 9.49754 22.5286 9.76188 22.7585 9.99173C22.9883 10.2216 23.2527 10.5181 23.3182 10.9256C23.3836 11.3325 23.2259 11.6965 23.0819 11.9845L22.8834 12.3815C22.7187 12.7108 22.3183 12.8443 21.9889 12.6796C21.6596 12.515 21.5261 12.1145 21.6908 11.7852L21.8893 11.3882C21.9527 11.2615 21.9816 11.1868 21.9943 11.1413L21.9951 11.1384L21.9935 11.136C21.9672 11.0969 21.9161 11.035 21.8157 10.9345C21.7152 10.8341 21.6533 10.783 21.6142 10.7567L21.6118 10.7551L21.6089 10.7559Z" fill="#1C1C1C"/>
<path fill-rule="evenodd" clip-rule="evenodd" d="M16 10.25C12.4101 10.25 9.5 13.1601 9.5 16.75C9.5 20.3399 12.4101 23.25 16 23.25C19.5899 23.25 22.5 20.3399 22.5 16.75C22.5 13.1601 19.5899 10.25 16 10.25ZM16.6667 14.4167C16.6667 14.0485 16.3682 13.75 16 13.75C15.6318 13.75 15.3333 14.0485 15.3333 14.4167V17.0833C15.3333 17.2601 15.4036 17.4297 15.5286 17.5547L16.8619 18.8881C17.1223 19.1484 17.5444 19.1484 17.8047 18.8881C18.0651 18.6277 18.0651 18.2056 17.8047 17.9453L16.6667 16.8072V14.4167Z" fill="#1C1C1C"/>
<path fill-rule="evenodd" clip-rule="evenodd" d="M14 9.41667C14 9.04848 14.2985 8.75 14.6667 8.75H17.3333C17.7015 8.75 18 9.04848 18 9.41667C18 9.78486 17.7015 10.0833 17.3333 10.0833H16.6667V10.4167C16.6667 10.7849 16.3682 11.0833 16 11.0833C15.6318 11.0833 15.3333 10.7849 15.3333 10.4167V10.0833H14.6667C14.2985 10.0833 14 9.78486 14 9.41667Z" fill="#1C1C1C"/>
</g>
<defs>
<clipPath id="clip0_2492_1475">
<rect width="16" height="16" fill="white" transform="translate(8 8)"/>
</clipPath>
</defs>
</svg>
